<?xml version="1.0" encoding="UTF-8"?>
<svg width="240px" height="51px" viewBox="0 0 240 51" version="1.1" xmlns="http://www.w3.org/2000/svg" xmlns:xlink="http://www.w3.org/1999/xlink">
    <!-- Generator: Sketch 56.3 (81716) - https://sketch.com -->
    <title>Group Copy</title>
    <desc>Created with Sketch.</desc>
    <defs>
        <radialGradient cx="40.0189012%" cy="27.5279495%" fx="40.0189012%" fy="27.5279495%" r="58.8379045%" id="radialGradient-1">
            <stop stop-color="#00ADDD" offset="0%"></stop>
            <stop stop-color="#1F6CB5" offset="100%"></stop>
        </radialGradient>
    </defs>
    <g id="Page-1" stroke="none" stroke-width="1" fill="none" fill-rule="evenodd">
        <g id="Inicial" transform="translate(-47.000000, -50.000000)">
            <g id="Topo">
                <g id="Group-Copy" transform="translate(47.000000, 50.000000)">
                    <path d="M97.2284718,49.9461467 C93.1675488,48.4981208 92.5025984,43.5266907 96.1230978,41.6819699 C98.0476774,40.7013538 101.349618,40.95227 102.937607,42.1998091 C104.213511,43.2021809 103.201549,43.6619814 101.658474,42.7810108 C100.452699,42.0926076 98.4154436,41.9778059 97.1054988,42.524443 C96.217015,42.8952102 95.4285593,43.9944636 95.2054694,45.1734228 C94.9903264,46.3104032 95.9177376,48.0232348 97.1079023,48.686968 C98.8034407,49.6325412 101.724222,49.2848672 102.380959,48.0592787 C102.888089,47.1128817 102.698233,46.9017651 101.273244,46.8275426 C100.077926,46.7652697 99.9153515,46.6970619 99.8489203,46.2299091 C99.7756597,45.7145678 99.8249731,45.7025739 102.019588,45.7025739 L104.265255,45.7025739 L104.265255,46.7225911 C104.265255,47.9294358 103.566273,49.1008212 102.46167,49.7451284 C101.313998,50.4145662 98.8116803,50.5106772 97.2284718,49.9461467 L97.2284718,49.9461467 Z M53.6578415,47.8705201 C53.7411776,46.6136977 53.8099006,44.6098135 53.8105694,43.417443 L53.8118111,41.2495056 L56.745153,41.2495056 C59.5033526,41.2495056 59.6784941,41.2769659 59.6784941,41.7094568 C59.6784941,42.1284655 59.4852929,42.1754049 57.507822,42.2367919 L55.337149,42.3042025 L55.2662211,43.5346631 L55.1952932,44.7651147 L57.3195628,44.7651147 C59.4290065,44.7651147 59.4438324,44.7695438 59.4438324,45.3510466 C59.4438324,45.932638 59.4281781,45.9369785 57.3318264,45.9369785 L55.2198204,45.9369785 L55.2198204,47.4603962 L55.2198204,48.9838138 L57.3318264,48.9838138 C59.4281869,48.9838138 59.4438324,48.9882429 59.4438324,49.5697457 L59.4438324,50.1556776 L56.4750983,50.1556776 L53.5063616,50.1556776 L53.6578415,47.8705201 Z M72.1158339,45.5766374 L72.1158339,40.9976238 L75.969379,44.287589 C78.0888237,46.0970721 79.8840266,47.5775542 79.9587151,47.5775542 C80.0333947,47.5775542 80.0945221,46.1537377 80.0945221,44.4135255 L80.0945221,41.2495056 L80.7985241,41.2495056 L81.5025261,41.2495056 L81.477692,43.6518211 C81.4640332,44.9730955 81.3848214,46.9808862 81.3016893,48.1135881 L81.1505384,50.1730396 L77.395864,47.0012511 C74.675767,44.7034442 73.6282519,43.9422359 73.5942399,44.238692 C73.5684213,44.4637513 73.4787995,45.8871425 73.3950891,47.4017729 C73.2453786,50.110625 73.2336755,50.155651 72.6793699,50.155651 L72.1158339,50.155651 L72.1158339,45.5766374 Z M116.702617,45.7025739 L116.702617,41.2495056 L119.635966,41.2495056 C122.394164,41.2495056 122.569307,41.2769659 122.569307,41.7094568 C122.569307,42.1284655 122.376106,42.1754049 120.39863,42.2367919 L118.227962,42.3042025 L118.157008,43.5346631 L118.086053,44.7651147 L120.343977,44.7651147 C122.551302,44.7651147 122.600225,44.7768961 122.526911,45.2924499 C122.456134,45.7901545 122.329933,45.8235764 120.281254,45.887178 L118.110577,45.9545886 L118.110577,47.4692189 L118.110577,48.9838404 L120.183478,48.9838404 C121.323567,48.9838404 122.315281,49.0426585 122.387291,49.1145957 C122.459309,49.1865239 122.464542,49.4501782 122.398998,49.7005276 C122.289444,50.1189605 122.054753,50.1557042 119.491193,50.1557042 L116.702546,50.1557042 L116.702617,45.7025739 Z M135.006669,45.5445354 L135.006669,40.9334199 L135.534678,41.4042045 C137.257879,42.9406525 142.763543,47.5775542 142.864644,47.5775542 C142.931076,47.5775542 142.985365,46.1537377 142.985365,44.4135255 L142.985365,41.2495056 L143.689367,41.2495056 L144.393369,41.2495056 L144.393369,45.7025739 C144.393369,48.1517667 144.32747,50.155651 144.246857,50.155651 C144.068619,50.155651 137.527187,44.6707576 137.117655,44.177925 C136.957538,43.9852423 136.733871,43.8276024 136.62061,43.8276024 C136.507349,43.8276024 136.414673,45.25141 136.414673,46.9916223 L136.414673,50.155651 L135.710671,50.155651 L135.006669,50.155651 L135.006669,45.5445354 Z M157.145814,47.5189575 C157.229452,46.0687791 157.298411,44.0649037 157.298996,43.0658892 L157.299883,41.2495056 L158.003885,41.2495056 L158.707887,41.2495056 L158.707887,43.0072925 L158.707887,44.7650882 L161.406563,44.7650882 L164.10523,44.7650882 L164.10523,43.0072925 L164.10523,41.2495056 L164.809232,41.2495056 L165.513234,41.2495056 L165.513234,45.7025739 L165.513234,50.155651 L164.809232,50.155651 L164.10523,50.155651 L164.10523,47.929108 L164.10523,45.7025739 L161.406563,45.7025739 L158.707887,45.7025739 L158.707887,47.929108 L158.707887,50.155651 L157.850694,50.155651 L156.993501,50.155651 L157.145814,47.5189575 Z M179.426043,45.5809779 L181.764837,41.0063137 L184.30775,45.5223812 C186.573116,49.5455452 186.798529,50.0468817 186.373006,50.1155855 C185.611274,50.2385811 185.2791,50.007578 184.761974,48.9952054 L184.277275,48.0463015 L181.982127,48.0463015 L179.686987,48.0463015 L179.173941,49.1009718 C178.717455,50.0393788 178.574154,50.155651 177.874072,50.155651 L177.087248,50.155651 L179.426043,45.5809779 Z M183.405971,46.9729227 C183.550151,46.8289245 182.145996,43.6186119 181.931838,43.602614 C181.699887,43.585252 180.285976,46.6662532 180.423726,46.8888588 C180.569972,47.1251856 183.179848,47.1987615 183.405971,46.9729227 Z M197.897512,46.7899574 C197.897512,44.9388321 197.964653,42.9349567 198.046747,42.3368891 L198.195974,41.2495056 L199.814287,41.2495056 C201.687442,41.2495056 202.772904,41.6310975 203.490131,42.5417607 C204.505517,43.8309863 203.864726,45.6675221 202.25907,46.0700104 C201.925282,46.1536314 201.65679,46.2897991 201.662413,46.3725077 C201.667734,46.4552429 202.402513,47.3138822 203.294607,48.2806707 L204.916583,50.0384575 L204.190399,50.114372 C203.564704,50.1797452 203.314483,50.0177915 202.382202,48.9440406 C199.390626,45.4984996 199.305516,45.4805264 199.305516,48.2945337 L199.305516,50.1556864 L198.601514,50.1556864 L197.897512,50.1556864 L197.897512,46.7899574 Z M202.06931,44.8689855 C203.294651,44.011799 202.351541,42.4213694 200.617909,42.4213694 L199.583622,42.4213694 L199.503266,43.730455 C199.459097,44.4504463 199.466902,45.0832556 199.52065,45.136688 C199.772175,45.3865856 201.604549,45.1940889 202.069337,44.8689855 L202.06931,44.8689855 Z M216.670902,45.7025739 L216.670902,41.2495056 L217.374904,41.2495056 L218.078906,41.2495056 L218.078906,45.7025739 L218.078906,50.155651 L217.374904,50.155651 L216.670902,50.155651 L216.670902,45.7025739 Z M231.876875,45.7078888 C233.129081,43.261628 234.219723,41.2577437 234.300522,41.2548085 C234.381322,41.2521542 235.377426,42.9106056 236.514091,44.9408606 C237.650747,46.9711068 238.783066,48.9749911 239.030351,49.3939289 L239.479999,50.1556422 L238.682222,50.1556422 C237.969209,50.1556422 237.830005,50.0436307 237.371443,49.100963 L236.858389,48.0462926 L234.555435,48.0462926 L232.252464,48.0462926 L231.739418,49.100963 C231.278037,50.0494417 231.1445,50.1556422 230.413252,50.1556422 L229.600121,50.1556422 L231.876875,45.7078888 Z M235.971466,46.9729139 C236.127965,46.8166028 234.701584,43.6167782 234.469084,43.6026052 C234.226082,43.587812 232.850283,46.6643487 232.995181,46.8985053 C233.137196,47.1280114 235.750735,47.1933492 235.971466,46.9729139 L235.971466,46.9729139 Z M196.724181,37.1338181 C195.885242,36.9440498 194.096895,36.2517579 192.750071,35.5954036 C186.807177,32.6991926 183.81004,27.3357888 184.122355,20.1560095 C184.204219,18.2746983 184.393259,17.0006574 184.748404,15.9373087 C186.304127,11.279391 189.811259,8.00341997 194.398203,6.92356943 C197.45527,6.20388019 202.373759,6.58647035 205.10691,7.75655986 L206.110872,8.18636845 L206.110872,12.9742548 L206.110872,17.7621421 L204.30742,17.0627424 C198.753561,14.9088824 194.504839,16.9106248 194.508475,21.6794271 C194.512023,26.1152131 198.376083,28.7869327 203.007471,27.5555952 C203.688342,27.3745787 204.618379,27.0066904 205.074226,26.7380756 C205.530073,26.4694607 205.951818,26.2496809 206.011438,26.2496809 C206.07104,26.2496809 206.091439,28.5857905 206.056671,31.4410326 L205.993522,36.6323665 L205.054847,36.9799076 C203.699863,37.4815807 198.672185,37.5744673 196.724164,37.1338181 L196.724181,37.1338181 Z M53.8117827,22.0120156 L53.8117827,7.22760011 L61.7318048,7.32789397 C70.5265144,7.43926409 71.0795828,7.51765438 74.0550239,9.07454433 C77.2044899,10.7224935 79.0418318,13.4966409 79.6258496,17.4857736 C80.2363336,21.6556164 78.7222614,24.7439344 75.2838429,26.3423904 C73.3703047,27.2319535 71.9696808,27.4799465 68.0091558,27.6304378 L64.2544788,27.7731074 L64.2544788,32.2849052 L64.2544788,36.796712 L59.0331307,36.796712 L53.8117827,36.796712 L53.8117827,22.0120156 Z M66.9799355,19.8940028 C68.5964252,19.5477639 69.2998259,18.8416356 69.2998259,17.5651295 C69.2998259,15.758093 67.3615707,14.5293182 64.9446828,14.8041489 L64.2544788,14.8826322 L64.1868059,17.2096719 C64.1495902,18.4895432 64.1726771,19.6760566 64.238106,19.8463636 C64.3835717,20.2249614 65.3558998,20.2418539 66.9799311,19.8940205 L66.9799355,19.8940028 Z M84.3185341,25.5838298 C84.3185341,19.4169023 84.2492647,12.77245 84.1645539,10.818384 L84.0105825,7.26553784 L91.2632444,7.26863819 C97.4298851,7.27129564 98.8348824,7.3374661 100.646121,7.71081189 C105.405849,8.6919214 108.314213,11.0504616 109.476333,14.871672 C110.86909,19.4512542 109.447951,23.350218 105.841767,24.8430041 C105.103751,25.1485132 104.499919,25.4901016 104.499919,25.6020953 C104.499919,25.7904109 109.137897,34.3096416 110.179599,36.0347418 L110.639553,36.7964551 L105.281731,36.785471 L99.9239104,36.7744868 L97.3425667,31.3468083 L94.7612231,25.91912 L94.6982509,31.3577658 L94.6352788,36.7964551 L89.4769197,36.7964551 L84.3185696,36.7964551 L84.3185341,25.5838298 Z M97.7119915,20.1550528 C99.0361805,19.7876695 99.6924123,18.9263108 99.6725894,17.5816003 C99.6429659,15.5732525 98.6483962,14.6886446 96.0956561,14.400199 L94.6438909,14.2361574 L94.6438909,17.3132681 L94.6438909,20.3903787 L95.75856,20.3894929 C96.3716338,20.3887665 97.2506717,20.2834696 97.7119915,20.155478 L97.7119915,20.1550528 Z M112.374373,36.2690933 C112.563494,35.6536992 118.42652,17.7935921 120.492716,11.538781 L121.907008,7.25743971 L127.674734,7.32008462 L133.442468,7.38272953 L133.623251,7.96865966 C133.722694,8.29092132 135.764242,14.8477806 138.16004,22.5394571 C140.555828,30.2311407 142.516027,36.5855511 142.516027,36.6603849 C142.516027,36.7352363 140.252737,36.7964374 137.486495,36.7964374 C132.898309,36.7964374 132.446497,36.7604732 132.337777,36.3862868 C132.212453,35.954983 131.868572,34.5454281 131.623061,33.4566362 L131.477719,32.8121164 L127.863659,32.8121164 L124.249599,32.8121164 L123.878781,34.4403969 C123.67484,35.3359481 123.507973,36.2324206 123.507973,36.4325618 C123.507973,36.7514113 122.809027,36.7964374 117.860143,36.7964374 L112.212313,36.7964374 L112.374373,36.2690933 Z M129.730641,25.4879756 C129.039757,22.5087193 128.210121,18.6730453 128.083112,17.8708786 C127.996371,17.3230342 127.843623,16.8747971 127.743666,16.8747971 C127.643718,16.8747971 127.491059,17.4812347 127.404432,18.2224369 C127.317779,18.9636391 126.933667,20.9716689 126.550787,22.6847221 C126.167908,24.3977752 125.854643,25.8479536 125.854643,25.9073387 C125.854643,25.9666883 126.754258,26.0153108 127.853787,26.0153108 C129.806767,26.0153108 129.850111,26.0030865 129.730641,25.4879756 Z M148.326485,26.4254622 L148.265375,16.0544942 L145.156032,15.9891032 L142.046689,15.9237034 L142.046689,11.5946211 L142.046689,7.26553872 L153.391681,7.26553872 L164.736663,7.26553872 L164.890377,10.4666202 C164.974902,12.2272151 165.044091,14.1783632 165.044091,14.8025057 L165.044091,15.9373096 L161.99341,15.9373096 L158.942738,15.9373096 L158.942738,26.3668744 L158.942738,36.7964285 L153.665166,36.7964285 L148.387595,36.7964285 L148.326485,26.4254622 Z M168.798766,22.030981 L168.798766,7.26553784 L174.078785,7.26553784 L179.358796,7.26553784 L179.358796,22.030981 L179.358796,36.7964285 L174.078785,36.7964285 L168.798766,36.7964285 L168.798766,22.030981 Z M209.219434,36.5034714 C209.278859,36.3423326 209.547927,35.5249635 209.817288,34.687079 C210.086649,33.8492033 212.219676,27.3365861 214.557344,20.2145974 L218.807653,7.26553784 L224.536221,7.26553784 L230.264797,7.26553784 L231.316928,10.6053417 C234.269497,19.9778187 239.43363,36.5620239 239.43363,36.671493 C239.43363,36.7402323 237.16728,36.7964285 234.397322,36.7964285 L229.361022,36.7964285 L229.130314,35.9175395 C229.00342,35.4341408 228.831134,34.722237 228.747461,34.3355252 C228.390125,32.6841868 228.724135,32.8121075 224.769918,32.8121075 L221.167202,32.8121075 L220.796385,34.4403881 C220.592444,35.3359393 220.425576,36.2324117 220.425576,36.432553 C220.425576,36.7514202 219.725734,36.7964285 214.768451,36.7964285 C210.341545,36.7964285 209.134839,36.7327383 209.219434,36.5034714 L209.219434,36.5034714 Z M226.600749,25.8395294 C226.656626,25.7428515 226.397606,24.3454058 226.025237,22.7340975 C225.652876,21.1227892 225.232985,19.1452757 225.092149,18.3396233 C224.951305,17.5339691 224.754956,16.8747971 224.655815,16.8747971 C224.556664,16.8747971 224.406551,17.4838443 224.322231,18.2282354 C224.237883,18.9726301 223.903262,20.7392042 223.578583,22.1539677 C223.253904,23.5687311 222.926457,25.0162963 222.850926,25.370791 L222.713585,26.0153108 L224.606404,26.0153108 C225.647457,26.0153108 226.544917,25.9362074 226.600749,25.8395294 L226.600749,25.8395294 Z M124.485753,5.90153256 C124.528769,5.79585293 125.296675,4.42477618 126.192192,2.85469377 L127.820403,0 L131.780828,0 L135.741253,0 L132.29908,3.04683879 L128.856907,6.0936767 L126.632225,6.0936767 C125.408641,6.0936767 124.442728,6.00721219 124.485753,5.90153256 Z" id="path24" fill="#1F6CB5" fill-rule="nonzero"></path>
                    <polygon id="Rectangle" fill="#FFCC29" points="0 6.89884607 43.5087719 6.89884607 43.5087719 50.407618"></polygon>
                    <circle id="Oval" fill="url(#radialGradient-1)" cx="21.871345" cy="28.653232" r="18.128655"></circle>
                </g>
            </g>
        </g>
    </g>
</svg>